<svg width="24" height="24" viewBox="0 0 24 24" fill="none" xmlns="http://www.w3.org/2000/svg">
<g clip-path="url(#clip0_49_2)">
<path d="M15.4537 2.53563L15.5787 2.41071L14.7563 2.17964C14.5033 2.10857 14.2389 2.08804 13.978 2.11921C13.7172 2.15037 13.465 2.23263 13.2359 2.36128C13.0069 2.48993 12.8054 2.66244 12.643 2.86898C12.4806 3.07549 12.3606 3.31197 12.2896 3.5649C12.2896 3.56492 12.2896 3.56495 12.2896 3.56497L7.85861 19.3539L7.85858 19.354C7.71536 19.8648 7.78093 20.4116 8.04084 20.874C8.30076 21.3365 8.73374 21.6767 9.24453 21.8199C9.75532 21.9631 10.3021 21.8976 10.7645 21.6377C11.2269 21.3778 11.5672 20.9448 11.7104 20.4341C11.7104 20.4341 11.7104 20.434 11.7104 20.434L16.1414 4.64716C16.2124 4.39414 16.2329 4.12961 16.2017 3.86868C16.1704 3.60775 16.088 3.35553 15.9593 3.12645C15.831 2.89832 15.6592 2.69759 15.4537 2.53563ZM7.91378 6.34367L7.91368 6.34356C7.72863 6.15839 7.5093 6.01064 7.26567 5.90968C7.02294 5.80909 6.76276 5.75732 6.50001 5.75732C6.23726 5.75732 5.97708 5.80909 5.73435 5.90968C5.49164 6.01026 5.27114 6.15767 5.08542 6.34349C5.08539 6.34351 5.08537 6.34354 5.08534 6.34356L0.843416 10.5865L0.843238 10.5867C0.468703 10.9617 0.258331 11.47 0.258331 12C0.258331 12.53 0.468703 13.0383 0.843238 13.4133L0.843458 13.4136L5.08637 17.6565C5.0864 17.6565 5.08643 17.6565 5.08646 17.6566C5.46146 18.0317 5.97011 18.2425 6.50054 18.2426C7.03101 18.2428 7.5398 18.0321 7.91498 17.6571C8.29017 17.2821 8.50101 16.7734 8.50114 16.243C8.50126 15.7125 8.29066 15.2037 7.91565 14.8285L7.91556 14.8284L5.08695 11.9998L7.91373 9.17039L7.91378 9.17033C8.28832 8.79533 8.49869 8.287 8.49869 7.757C8.49869 7.227 8.28832 6.71867 7.91378 6.34367ZM23.1566 10.5855L23.1565 10.5854L18.9193 6.3492C18.7375 6.15593 18.519 6.00074 18.2766 5.89272C18.0313 5.78341 17.7664 5.72463 17.4979 5.71989C17.2293 5.71516 16.9626 5.76455 16.7136 5.86514C16.4645 5.96573 16.2383 6.11545 16.0484 6.30537C15.8585 6.49528 15.7087 6.72151 15.6082 6.97054C15.5076 7.21958 15.4582 7.48632 15.4629 7.75486C15.4676 8.0234 15.5264 8.28824 15.6357 8.53357C15.7438 8.776 15.8989 8.99448 16.0922 9.17629L18.914 11.9999L16.0855 14.8284L16.0854 14.8285C15.8997 15.0143 15.7524 15.2348 15.652 15.4775C15.5515 15.7202 15.4998 15.9803 15.4999 16.243C15.4999 16.5056 15.5517 16.7657 15.6523 17.0083C15.7529 17.251 15.9003 17.4715 16.086 17.6571C16.2718 17.8428 16.4923 17.9901 16.735 18.0906C16.9777 18.191 17.2378 18.2427 17.5005 18.2426C17.7631 18.2426 18.0232 18.1908 18.2659 18.0902C18.5085 17.9896 18.7289 17.8423 18.9146 17.6565C18.9146 17.6565 18.9146 17.6565 18.9146 17.6565L23.1566 13.4135L23.1566 13.4135C23.5316 13.0384 23.7422 12.5298 23.7422 11.9995C23.7422 11.4692 23.5316 10.9606 23.1566 10.5855Z" fill="#1E1E1E" stroke="white"/>
</g>
<defs>
<clipPath id="clip0_49_2">
<rect width="24" height="24" fill="white"/>
</clipPath>
</defs>
</svg>
