<svg width="24" height="24" viewBox="0 0 24 24" fill="none" xmlns="http://www.w3.org/2000/svg">
<g clip-path="url(#clip0_23_2)">
<path d="M18.375 0H5.625C2.5184 0 0 2.5184 0 5.625V18.375C0 21.4816 2.5184 24 5.625 24H18.375C21.4816 24 24 21.4816 24 18.375V5.625C24 2.5184 21.4816 0 18.375 0Z" fill="#00599C"/>
<path d="M10.3837 19.736C6.10547 19.736 2.625 16.2555 2.625 11.9774C2.625 7.69922 6.10547 4.21875 10.3837 4.21875C13.1441 4.21875 15.7188 5.70431 17.1025 8.09559L13.7448 10.0387C13.0522 8.84166 11.7642 8.09803 10.3837 8.09803C8.24456 8.09803 6.50428 9.83831 6.50428 11.9774C6.50428 14.1164 8.24456 15.8567 10.3837 15.8567C11.7643 15.8567 13.0523 15.1131 13.745 13.9159L17.1027 15.8588C15.719 18.2504 13.1443 19.736 10.3837 19.736Z" fill="white"/>
<path d="M18.1422 11.5463H17.2801V10.6842H16.4182V11.5463H15.556V12.4084H16.4182V13.2705H17.2801V12.4084H18.1422V11.5463ZM21.375 11.5463H20.5129V10.6842H19.6509V11.5463H18.7888V12.4084H19.6509V13.2705H20.5129V12.4084H21.375V11.5463Z" fill="white"/>
</g>
<defs>
<clipPath id="clip0_23_2">
<rect width="24" height="24" fill="white"/>
</clipPath>
</defs>
</svg>
