<svg width="24" height="24" viewBox="0 0 24 24" fill="none" xmlns="http://www.w3.org/2000/svg">
<g clip-path="url(#clip0_3_85)">
<path d="M23.6868 6.38623C23.6867 5.89313 23.6371 5.40129 23.5387 4.91811C23.4403 4.42348 23.273 3.94508 23.0418 3.49686C22.8003 3.06268 22.4999 2.66392 22.1493 2.31186C21.7879 1.95806 21.3679 1.66943 20.9081 1.45873C20.4543 1.23 19.969 1.07013 19.4681 0.984358C18.9712 0.888733 18.4256 0.888733 17.9287 0.841858H5.67185C5.28951 0.848106 4.90803 0.880053 4.52997 0.937483C4.1548 0.981601 3.78756 1.07751 3.43873 1.22248C3.33935 1.26936 3.19123 1.31811 3.09185 1.36498C2.76189 1.54205 2.44818 1.74785 2.15435 1.97998C2.05498 2.07561 1.9556 2.12248 1.85623 2.21623C1.49077 2.55515 1.18856 2.9564 0.963726 3.40123C0.718128 3.84312 0.550071 4.32383 0.466851 4.82248C0.393116 5.30909 0.34368 5.79908 0.318726 6.29061V17.6137C0.318855 18.1068 0.368478 18.5987 0.466851 19.0819C0.565295 19.5765 0.732545 20.0549 0.963726 20.5031C1.20529 20.9373 1.50563 21.336 1.85623 21.6881C2.21771 22.0419 2.63764 22.3305 3.09748 22.5412C3.55127 22.77 4.03659 22.9298 4.53748 23.0156C5.03435 23.1112 5.57998 23.1112 6.07685 23.1581H17.9306C18.447 23.1578 18.9623 23.1101 19.47 23.0156C19.9709 22.9298 20.4562 22.77 20.91 22.5412C21.3601 22.3138 21.7776 22.0268 22.1512 21.6881C22.5167 21.3492 22.8189 20.9479 23.0437 20.5031C23.2893 20.0612 23.4574 19.5805 23.5406 19.0819C23.6143 18.5952 23.6638 18.1053 23.6887 17.6137V6.38623H23.6868Z" fill="#F05138"/>
<path d="M15.9375 18.0938C13.8543 19.2431 10.9912 19.3613 8.10935 18.1819C5.86238 17.2702 3.9412 15.7044 2.59497 13.6875C3.22061 14.1664 3.90412 14.5646 4.62935 14.8725C7.60497 16.2038 10.5787 16.1119 12.6731 14.8725C9.69184 12.6863 7.1606 9.84377 5.27435 7.52252C4.90215 7.13021 4.56989 6.70185 4.28247 6.24377C6.56247 8.23314 10.1887 10.7438 11.4787 11.4544C9.63699 9.56707 7.94442 7.53974 6.41622 5.39064C8.9563 7.85905 11.7514 10.0507 14.7543 11.9288C14.8875 12 14.9906 12.06 15.0731 12.1163C15.161 11.9013 15.2368 11.6816 15.3 11.4581C15.9956 9.04127 15.2006 6.29439 13.4643 4.02002C17.4843 6.33939 19.875 10.6969 18.8737 14.3456C18.8475 14.445 18.8193 14.5331 18.7893 14.6363L18.825 14.6775C20.8106 17.0456 20.265 19.5525 20.0156 19.0838C18.9375 17.0625 16.9443 17.6869 15.9375 18.0938Z" fill="#FEFEFE"/>
</g>
<defs>
<clipPath id="clip0_3_85">
<rect width="24" height="24" fill="white"/>
</clipPath>
</defs>
</svg>
