<svg width="16" height="16" viewBox="0 0 16 16" fill="none" xmlns="http://www.w3.org/2000/svg">
<g clip-path="url(#clip0_3_34)">
<path d="M0.176 0.175995H15.824V15.8241H0.176V0.175995Z" fill="#F0DB4F"/>
<path d="M14.5434 12.092C14.4288 11.3781 13.9633 10.7785 12.5844 10.2194C12.1054 9.99925 11.5714 9.84162 11.4122 9.47862C11.3557 9.26737 11.3482 9.14837 11.384 9.0205C11.4866 8.6055 11.982 8.47612 12.3746 8.59512C12.6275 8.67987 12.8669 8.87475 13.0112 9.18562C13.6865 8.74837 13.6851 8.75125 14.1566 8.45075C13.984 8.18312 13.8919 8.05962 13.7789 7.94512C13.3728 7.4915 12.8194 7.25787 11.9344 7.27575L11.4734 7.33537C11.0316 7.447 10.6106 7.67887 10.3637 7.98975C9.623 8.83025 9.83425 10.3012 10.7356 10.9066C11.6236 11.5731 12.9281 11.7247 13.0947 12.348C13.2569 13.111 12.534 13.358 11.8155 13.2702C11.286 13.1601 10.9915 12.891 10.6731 12.4016C10.0871 12.7407 10.0871 12.7407 9.48462 13.0872C9.6275 13.3996 9.77762 13.541 10.0171 13.8116C11.1506 14.9614 13.9871 14.9049 14.4959 13.1646C14.5165 13.1049 14.6535 12.7064 14.5434 12.092ZM8.68275 7.36787H7.21912L7.21312 11.1519C7.21312 11.9566 7.25475 12.6944 7.12387 12.9205C6.90975 13.3652 6.35487 13.3101 6.102 13.2239C5.84462 13.0974 5.71375 12.9175 5.56212 12.6632C5.5205 12.5902 5.48925 12.5337 5.47875 12.5294L4.28875 13.2581C4.48662 13.6642 4.77812 14.0167 5.1515 14.2457C5.70925 14.5805 6.45887 14.6831 7.24287 14.5031C7.75312 14.3545 8.19337 14.0466 8.42387 13.578C8.75712 12.9636 8.68562 12.22 8.68262 11.3975C8.69012 10.0556 8.68275 8.714 8.68275 7.36787Z" fill="#323330"/>
</g>
<defs>
<clipPath id="clip0_3_34">
<rect width="16" height="16" fill="white"/>
</clipPath>
</defs>
</svg>
