<svg width="16" height="16" viewBox="0 0 16 16" fill="none" xmlns="http://www.w3.org/2000/svg">
<g clip-path="url(#clip0_3_37)">
<path d="M7.10162 15.9483C6.86375 15.9199 6.61425 15.8833 6.54738 15.8668C6.44896 15.8434 6.34997 15.8226 6.2505 15.8043C6.1369 15.7822 6.02419 15.7558 5.91262 15.7251C5.3945 15.5766 5.35738 15.5645 4.96675 15.4048C4.60738 15.2583 3.94525 14.916 3.71875 14.7603C3.65675 14.7173 3.59875 14.6826 3.58987 14.6826C3.581 14.6826 3.43613 14.5806 3.26763 14.456C2.19638 13.6631 1.39213 12.7006 0.811 11.5151C0.711 11.3115 0.629375 11.1309 0.629375 11.1139C0.629375 11.0971 0.611375 11.0508 0.589375 11.0118C0.544 10.9306 0.479375 10.7559 0.42725 10.5753C0.404847 10.4985 0.378775 10.4229 0.349125 10.3486C0.32475 10.2911 0.305125 10.2211 0.305125 10.1929C0.305125 10.1645 0.28075 10.0723 0.251 9.98725C0.22125 9.90288 0.19725 9.80325 0.19725 9.766C0.19725 9.729 0.173875 9.601 0.145 9.4815C0.07475 9.1865 0 8.42238 0 7.99413C0 7.56638 0.07475 6.80225 0.145 6.50738C0.17375 6.38775 0.19725 6.25738 0.19725 6.21738C0.19725 6.17725 0.215375 6.09863 0.23725 6.04238C0.25975 5.98638 0.2885 5.88575 0.30175 5.81888C0.3155 5.752 0.34675 5.63675 0.372125 5.562L0.445875 5.34625C0.5 5.18463 0.55025 5.04788 0.57425 4.99463C0.588 4.96488 0.641625 4.84338 0.693875 4.72463C0.778375 4.53275 0.9595 4.17088 1.06537 3.9815C1.104 3.91213 1.11863 3.88913 1.32763 3.5625C1.65875 3.044 2.22462 2.39888 2.75137 1.939C2.937 1.77688 3.55713 1.30613 3.585 1.30613C3.59275 1.30613 3.65125 1.271 3.71537 1.228C3.88375 1.11525 4.04887 1.0195 4.26412 0.911629C4.34139 0.873417 4.41791 0.833701 4.49363 0.792504C4.52925 0.772004 4.59612 0.741254 4.9395 0.587504C5.01512 0.553754 5.09663 0.523004 5.3315 0.440879C5.38325 0.422879 5.48725 0.384754 5.5615 0.356879C5.63625 0.329129 5.72413 0.306129 5.75688 0.306129C5.78913 0.306129 5.874 0.283629 5.94537 0.255879C6.01662 0.228004 6.146 0.196254 6.23338 0.185504C6.32038 0.175254 6.436 0.150879 6.49025 0.131754C6.544 0.113254 6.6915 0.0892538 6.81787 0.0786288C6.98258 0.0637214 7.14685 0.0443393 7.3105 0.0205038C7.6465 -0.0287462 8.377 -0.0287462 8.7095 0.0205038C8.86655 0.0430416 9.02414 0.0615893 9.18213 0.0761288C9.30125 0.0860038 9.45313 0.110879 9.52 0.131379C9.58688 0.151379 9.70262 0.176379 9.77687 0.185504C9.85112 0.195379 9.97612 0.226129 10.0546 0.254379C10.1334 0.283129 10.2226 0.306129 10.2534 0.306129C10.2841 0.306129 10.3476 0.323254 10.394 0.344754C10.4409 0.365754 10.54 0.400879 10.6147 0.422879C10.689 0.445379 10.8164 0.489754 10.8985 0.522504C10.98 0.555129 11.0894 0.598129 11.1416 0.617629C11.2379 0.653879 11.9491 1.00975 12.0459 1.07038C12.831 1.56 13.2349 1.87988 13.7779 2.44088C14.4326 3.11763 14.8672 3.76213 15.3096 4.71088C15.3409 4.77788 15.3886 4.877 15.416 4.93063C15.4429 4.98488 15.4654 5.04838 15.4654 5.07188C15.4654 5.09563 15.4879 5.16688 15.5156 5.2305C15.5909 5.40338 15.6553 5.60013 15.6856 5.7505C15.7006 5.82425 15.7285 5.9155 15.7475 5.95313C15.7666 5.99063 15.789 6.086 15.7979 6.16413C15.8066 6.24213 15.8325 6.37013 15.8545 6.44775C15.982 6.88913 16.0454 8.1895 15.9683 8.76463C15.9454 8.9355 15.9195 9.14213 15.9108 9.22363C15.896 9.36325 15.8222 9.72413 15.7592 9.96675L15.6943 10.2236C15.5718 10.7183 15.269 11.4229 14.8994 12.0748C14.7529 12.3335 14.2617 13.0333 14.169 13.1153C14.1606 13.1225 14.1191 13.1715 14.0771 13.2231C14.0351 13.2754 13.9004 13.4214 13.7784 13.5474C13.2407 14.1025 12.8071 14.4458 12.0459 14.9185C11.9556 14.9746 11.19 15.3486 11.0469 15.4068C10.9726 15.4365 10.8486 15.4868 10.7715 15.518C10.6949 15.5489 10.6094 15.5748 10.5825 15.5753C10.5556 15.5756 10.4849 15.5996 10.4253 15.6284C10.3658 15.6571 10.29 15.6811 10.2564 15.6816C10.2231 15.6821 10.126 15.7056 10.0405 15.7339C9.95512 15.7626 9.83637 15.7935 9.77675 15.8026C9.71725 15.812 9.58987 15.8374 9.49312 15.8589C9.3965 15.8804 9.10438 15.9224 8.84475 15.9521C8.2656 16.0197 7.68047 16.0184 7.10162 15.9483ZM7.6895 14.3858C7.727 14.3565 7.76563 14.2983 7.77588 14.2574C7.79838 14.167 11.4301 6.88613 11.4985 6.79488C11.5561 6.71775 11.5615 6.59425 11.5087 6.55075C11.481 6.52738 11.1332 6.52 10.205 6.5215C9.50875 6.523 8.92338 6.5235 8.90425 6.523C8.876 6.522 8.87013 6.05675 8.873 4.064C8.875 2.71188 8.86863 1.59325 8.85888 1.57775C8.84913 1.562 8.811 1.54938 8.77388 1.54938C8.72163 1.54938 8.69725 1.57188 8.66512 1.65038C8.6045 1.79638 8.437 2.12788 7.62162 3.711C7.45226 4.03954 7.2833 4.36829 7.11475 4.69725C6.97025 4.98 6.74225 5.42388 6.60887 5.6835C6.24987 6.38141 5.89162 7.0797 5.53412 7.77838C4.9175 8.98288 4.84287 9.1265 4.81637 9.15825C4.76512 9.22025 4.73725 9.36325 4.76613 9.417C4.79238 9.46625 4.84475 9.46825 6.1465 9.46625C6.89063 9.46538 7.50437 9.46925 7.51075 9.475C7.52787 9.49263 7.5215 14.1388 7.50387 14.2495C7.49225 14.3223 7.5 14.3608 7.53325 14.394C7.59075 14.4516 7.6065 14.4511 7.6895 14.3858Z" fill="#049688"/>
</g>
<defs>
<clipPath id="clip0_3_37">
<rect width="16" height="16" fill="white"/>
</clipPath>
</defs>
</svg>
