<svg width="24" height="24" viewBox="0 0 24 24" fill="none" xmlns="http://www.w3.org/2000/svg">
<path d="M22.8375 17.4562C21.5812 18.1125 15.075 20.775 13.6875 21.5062C12.3 22.2375 11.5312 22.2187 10.4437 21.6937C9.35625 21.1687 2.4375 18.3937 1.18125 17.7937C0.5625 17.4937 0.24375 17.25 0.24375 17.0062V14.625C0.24375 14.625 9.24375 12.6563 10.7062 12.15C12.1687 11.625 12.6562 11.6063 13.8937 12.0563C15.1312 12.5063 22.5375 13.8375 23.7562 14.2875V16.6312C23.7562 16.875 23.475 17.1375 22.8375 17.4562Z" fill="#A41E11"/>
<path d="M22.8375 15.0937C21.5813 15.75 15.075 18.4125 13.6875 19.1437C12.3 19.875 11.5313 19.8562 10.4438 19.3312C9.35625 18.8062 2.4375 16.0125 1.18125 15.4125C-0.0562496 14.8125 -0.0937497 14.4 1.125 13.9312C2.34375 13.4437 9.225 10.7437 10.6875 10.2375C12.15 9.71249 12.6375 9.69374 13.875 10.1437C15.1125 10.5937 21.5813 13.1625 22.8 13.6125C24.0563 14.0625 24.0938 14.4375 22.8375 15.0937Z" fill="#D82C20"/>
<path d="M22.8375 13.5937C21.5812 14.25 15.075 16.9125 13.6875 17.6437C12.3 18.3562 11.5312 18.3562 10.4437 17.8312C9.35625 17.3062 2.4375 14.5125 1.18125 13.9125C0.5625 13.6125 0.24375 13.3687 0.24375 13.125V10.7437C0.24375 10.7437 9.24375 8.77499 10.7062 8.26874C12.1687 7.74374 12.6562 7.72499 13.8937 8.17499C15.1312 8.62499 22.5375 9.95624 23.7562 10.4062V12.75C23.7562 12.9937 23.475 13.2562 22.8375 13.5937Z" fill="#A41E11"/>
<path d="M22.8375 11.2125C21.5813 11.8688 15.075 14.5313 13.6875 15.2625C12.3 15.975 11.5312 15.975 10.4437 15.45C9.35625 14.925 2.4375 12.1313 1.18125 11.5313C-0.0750002 10.9313 -0.0937502 10.5188 1.125 10.05C2.34375 9.5625 9.225 6.8625 10.6875 6.35625C12.15 5.83125 12.6375 5.8125 13.875 6.2625C15.1125 6.7125 21.5813 9.28125 22.8 9.73125C24.0563 10.1813 24.0938 10.5563 22.8375 11.2125Z" fill="#D82C20"/>
<path d="M22.8375 9.5625C21.5813 10.2187 15.075 12.8812 13.6875 13.6125C12.3 14.325 11.5313 14.325 10.4438 13.8C9.35625 13.2937 2.4375 10.5 1.18125 9.9C0.5625 9.6 0.225 9.35625 0.225 9.1125V6.73125C0.225 6.73125 9.225 4.7625 10.6875 4.25625C12.15 3.73125 12.6375 3.7125 13.875 4.1625C15.1125 4.6125 22.5188 5.94375 23.7375 6.39375V8.7375C23.7563 8.98125 23.475 9.225 22.8375 9.5625Z" fill="#A41E11"/>
<path d="M22.8375 7.18126C21.5813 7.83751 15.075 10.5 13.6875 11.2313C12.3 11.9438 11.5312 11.9438 10.4437 11.4188C9.35625 10.8938 2.4375 8.11876 1.18125 7.51876C-0.0750002 6.91876 -0.0937502 6.50626 1.125 6.03751C2.34375 5.55001 9.225 2.85001 10.6875 2.34376C12.15 1.81876 12.6375 1.80001 13.875 2.25001C15.1125 2.70001 21.5813 5.26876 22.8 5.71876C24.0563 6.16876 24.0938 6.54376 22.8375 7.18126Z" fill="#D82C20"/>
<path d="M15.075 4.89375L13.05 5.11875L12.5812 6.20625L11.85 4.9875L9.50625 4.78125L11.25 4.14375L10.725 3.16875L12.375 3.80625L13.9125 3.3L13.5 4.3125L15.075 4.89375ZM12.4688 10.2187L8.6625 8.64375L14.1188 7.81875L12.4688 10.2187Z" fill="white"/>
<path d="M7.2 7.7625C8.80508 7.7625 10.1063 7.25882 10.1063 6.6375C10.1063 6.01618 8.80508 5.5125 7.2 5.5125C5.59492 5.5125 4.29375 6.01618 4.29375 6.6375C4.29375 7.25882 5.59492 7.7625 7.2 7.7625Z" fill="white"/>
<path d="M17.4938 5.19376L20.7188 6.46876L17.4938 7.74376V5.19376Z" fill="#7A0C00"/>
<path d="M13.9313 6.61876L17.4938 5.19376V7.74376L17.1375 7.89376L13.9313 6.61876Z" fill="#AD2115"/>
</svg>
