<svg width="24" height="24" viewBox="0 0 24 24" fill="none" xmlns="http://www.w3.org/2000/svg">
<g clip-path="url(#clip0_3_73)">
<path d="M22.4094 9.59776H14.8671C14.7774 9.59776 14.6886 9.58009 14.6058 9.54577C14.523 9.51145 14.4477 9.46114 14.3843 9.39773C14.321 9.33431 14.2707 9.25903 14.2364 9.17618C14.2021 9.09333 14.1845 9.00454 14.1846 8.91488V1.05376C14.1849 0.915225 14.1579 0.777987 14.1051 0.649936C14.0522 0.521884 13.9745 0.405547 13.8766 0.307616C13.7786 0.209685 13.6622 0.132092 13.5341 0.0793011C13.406 0.0265099 13.2688 -0.000437996 13.1303 7.38794e-06H10.4363C10.2977 -0.000512198 10.1603 0.0263796 10.0322 0.0791352C9.90403 0.131891 9.78758 0.209469 9.68952 0.307405C9.59146 0.405341 9.51374 0.521702 9.46082 0.649791C9.40791 0.77788 9.38084 0.915169 9.38119 1.05376V8.86238C9.38149 8.95903 9.36269 9.05479 9.32586 9.14415C9.28904 9.23351 9.23493 9.31471 9.16663 9.3831C9.09834 9.45148 9.0172 9.5057 8.92789 9.54263C8.83857 9.57957 8.74284 9.59849 8.64619 9.59832L6.17344 9.60713C5.76544 9.60713 5.42869 9.27901 5.43732 8.87101L5.45494 1.05469C5.45541 0.916044 5.42845 0.778669 5.3756 0.650484C5.32275 0.522298 5.24506 0.405835 5.14701 0.307802C5.04896 0.209769 4.93249 0.132103 4.80429 0.0792779C4.6761 0.0264527 4.53872 -0.000488067 4.40007 7.38794e-06H1.70625C1.56763 -0.000388472 1.4303 0.0266202 1.30215 0.0794807C1.174 0.132341 1.05756 0.210011 0.959528 0.308024C0.861497 0.406037 0.783807 0.522461 0.730924 0.650601C0.678041 0.778742 0.651007 0.916071 0.651379 1.05469V23.0606C0.651379 23.5738 1.06763 24 1.59075 24H22.4094C22.6585 23.9997 22.8972 23.9006 23.0733 23.7245C23.2493 23.5483 23.3483 23.3095 23.3484 23.0604V10.5366C23.3492 10.413 23.3255 10.2906 23.2786 10.1763C23.2317 10.062 23.1625 9.95822 23.0752 9.87089C22.9878 9.78355 22.884 9.71443 22.7697 9.66754C22.6554 9.62066 22.533 9.59694 22.4094 9.59776ZM18.8738 17.8579C18.8727 18.182 18.7435 18.4926 18.5143 18.7218C18.285 18.951 17.9745 19.0801 17.6503 19.0811H15.5233C15.1992 19.08 14.8888 18.9508 14.6596 18.7216C14.4305 18.4925 14.3013 18.182 14.3003 17.8579V15.7313C14.3013 15.4072 14.4305 15.0967 14.6596 14.8675C14.8888 14.6383 15.1992 14.5091 15.5233 14.508H17.6501C17.9742 14.509 18.2848 14.6382 18.514 14.8673C18.7432 15.0964 18.8725 15.407 18.8736 15.7311L18.8738 17.8579Z" fill="#FF6600"/>
</g>
<defs>
<clipPath id="clip0_3_73">
<rect width="24" height="24" fill="white"/>
</clipPath>
</defs>
</svg>
