<svg width="22" height="22" viewBox="0 0 22 22" fill="none" xmlns="http://www.w3.org/2000/svg">
<g clip-path="url(#clip0_76_3)">
<path d="M10.9656 0.6875C6.49685 0.6875 2.68123 3.575 1.27185 7.5625H20.7281C19.2844 3.575 15.4687 0.6875 10.9656 0.6875Z" fill="white"/>
<path d="M10.9656 21.3125C15.4687 21.3125 19.2844 18.425 20.6937 14.4375H1.27185C2.68123 18.4594 6.49685 21.3125 10.9656 21.3125Z" fill="#FF0019"/>
<path d="M1.27188 7.5625C0.89375 8.62812 0.6875 9.79688 0.6875 11C0.6875 12.2031 0.89375 13.3719 1.27188 14.4375H20.7281C21.1062 13.3719 21.3125 12.2031 21.3125 11C21.3125 9.79688 21.1062 8.62812 20.7281 7.5625H1.27188Z" fill="#0093FF"/>
<g clip-path="url(#clip1_76_3)">
<mask id="mask0_76_3" style="mask-type:luminance" maskUnits="userSpaceOnUse" x="0" y="0" width="22" height="22">
<path d="M11 22C17.0751 22 22 17.0751 22 11C22 4.92487 17.0751 0 11 0C4.92487 0 0 4.92487 0 11C0 17.0751 4.92487 22 11 22Z" fill="white"/>
</mask>
<g mask="url(#mask0_76_3)">
<path d="M0 0L0.34375 0.945312L0 1.93359V2.92188L1.375 5.24219L0 7.5625V8.9375L1.375 11L0 13.0625V14.4375L1.375 16.7578L0 19.0781V22L0.945312 21.6562L1.93359 22H2.92188L5.24219 20.625L7.5625 22H8.9375L11 20.625L13.0625 22H14.4375L16.7578 20.625L19.0781 22H22L21.6562 21.0547L22 20.0664V19.0781L20.625 16.7578L22 14.4375V13.0625L20.625 11L22 8.9375V7.5625L20.625 5.24219L22 2.92188V0L21.0547 0.34375L20.0664 0H19.0781L16.7578 1.375L14.4375 0H13.0625L11 1.375L8.9375 0H7.5625L5.24219 1.375L2.92188 0H0Z" fill="#EEEEEE"/>
<path d="M14.4375 0V4.64062L19.0781 0H14.4375ZM22 2.92188L17.3594 7.5625H22V2.92188ZM0 7.5625H4.64062L0 2.92188V7.5625ZM2.92188 0L7.5625 4.64062V0H2.92188ZM7.5625 22V17.3594L2.92188 22H7.5625ZM0 19.0781L4.64062 14.4375H0V19.0781ZM22 14.4375H17.3594L22 19.0781V14.4375ZM19.0781 22L14.4375 17.3594V22H19.0781Z" fill="#0052B4"/>
<path d="M0 0V1.93359L5.62891 7.5625H7.5625L0 0ZM8.9375 0V8.9375H0V13.0625H8.9375V22H13.0625V13.0625H22V8.9375H13.0625V0H8.9375ZM20.0664 0L14.4375 5.62891V7.5625L22 0H20.0664ZM7.5625 14.4375L0 22H1.93359L7.5625 16.3711V14.4375ZM14.4375 14.4375L22 22V20.0664L16.3711 14.4375H14.4375Z" fill="#D80027"/>
</g>
</g>
</g>
<defs>
<clipPath id="clip0_76_3">
<rect width="22" height="22" fill="white"/>
</clipPath>
<clipPath id="clip1_76_3">
<rect width="22" height="22" fill="white"/>
</clipPath>
</defs>
</svg>
