<svg width="24" height="24" viewBox="0 0 24 24" fill="none" xmlns="http://www.w3.org/2000/svg">
<path fill-rule="evenodd" clip-rule="evenodd" d="M4.125 3.75C4.02554 3.75 3.93016 3.78951 3.85984 3.85984C3.78951 3.93016 3.75 4.02554 3.75 4.125V7.3755C3.75 7.5825 3.918 7.7505 4.125 7.7505H7.7505V3.75H4.125ZM10.0005 3.75V7.7505H13.9995V3.75H10.0005ZM16.2495 3.75V7.7505H19.875C19.9745 7.7505 20.0698 7.71099 20.1402 7.64067C20.2105 7.57034 20.25 7.47496 20.25 7.3755V4.125C20.25 4.02554 20.2105 3.93016 20.1402 3.85984C20.0698 3.78951 19.9745 3.75 19.875 3.75H16.2495ZM16.2495 10.0005H19.875C20.5712 10.0005 21.2389 9.72394 21.7312 9.23166C22.2234 8.73937 22.5 8.07169 22.5 7.3755V4.125C22.5 3.42881 22.2234 2.76113 21.7312 2.26884C21.2389 1.77656 20.5712 1.5 19.875 1.5H4.125C3.42881 1.5 2.76113 1.77656 2.26884 2.26884C1.77656 2.76113 1.5 3.42881 1.5 4.125V7.3755C1.5 8.8245 2.676 10.0005 4.125 10.0005H7.7505V19.875C7.7505 21.324 8.925 22.5 10.3755 22.5H13.6245C14.3207 22.5 14.9884 22.2234 15.4807 21.7312C15.9729 21.2389 16.2495 20.5712 16.2495 19.875V10.0005ZM13.9995 10.0005H10.0005V13.9995H13.9995V10.0005ZM13.9995 16.2495H10.0005V19.875C10.0005 20.082 10.1685 20.25 10.3755 20.25H13.6245C13.724 20.25 13.8193 20.2105 13.8897 20.1402C13.96 20.0698 13.9995 19.9745 13.9995 19.875V16.2495Z" fill="black"/>
</svg>
