<svg width="22" height="22" viewBox="0 0 22 22" fill="none" xmlns="http://www.w3.org/2000/svg">
<path d="M10.9633 0C6.19662 0 2.12662 3.08 0.623291 7.33333H21.3766C19.8366 3.08 15.7666 0 10.9633 0Z" fill="#F9F9F9"/>
<path d="M10.9633 22C15.7666 22 19.8366 18.92 21.34 14.6667H0.623291C2.12662 18.9567 6.19662 22 10.9633 22Z" fill="#ED4C5C"/>
<path d="M0.623333 7.33334C0.22 8.47 0 9.71667 0 11C0 12.2833 0.22 13.53 0.623333 14.6667H21.3767C21.78 13.53 22 12.2833 22 11C22 9.71667 21.78 8.47 21.3767 7.33334H0.623333Z" fill="#428BC1"/>
</svg>
