<svg width="27" height="24" viewBox="0 0 27 24" fill="none" xmlns="http://www.w3.org/2000/svg">
<g clip-path="url(#clip0_23_9)">
<path d="M13.5 0H18.75C19.1625 0 19.5 0.3375 19.5 0.75V3.75C19.5 4.1625 19.1625 4.5 18.75 4.5H15.0328L19.2328 7.5H24C25.6547 7.5 27 8.84531 27 10.5V21C27 22.6547 25.6547 24 24 24H15.75V18.75C15.75 17.5078 14.7422 16.5 13.5 16.5C12.2578 16.5 11.25 17.5078 11.25 18.75V24H3C1.34531 24 0 22.6547 0 21V10.5C0 8.84531 1.34531 7.5 3 7.5H7.76719L12 4.47656V1.5C12 0.670312 12.6703 0 13.5 0ZM15.75 11.25C15.75 10.6533 15.5129 10.081 15.091 9.65901C14.669 9.23705 14.0967 9 13.5 9C12.9033 9 12.331 9.23705 11.909 9.65901C11.4871 10.081 11.25 10.6533 11.25 11.25C11.25 11.8467 11.4871 12.419 11.909 12.841C12.331 13.2629 12.9033 13.5 13.5 13.5C14.0967 13.5 14.669 13.2629 15.091 12.841C15.5129 12.419 15.75 11.8467 15.75 11.25ZM3.75 10.5C3.3375 10.5 3 10.8375 3 11.25V14.25C3 14.6625 3.3375 15 3.75 15H5.25C5.6625 15 6 14.6625 6 14.25V11.25C6 10.8375 5.6625 10.5 5.25 10.5H3.75ZM21 11.25V14.25C21 14.6625 21.3375 15 21.75 15H23.25C23.6625 15 24 14.6625 24 14.25V11.25C24 10.8375 23.6625 10.5 23.25 10.5H21.75C21.3375 10.5 21 10.8375 21 11.25ZM3.75 16.5C3.3375 16.5 3 16.8375 3 17.25V20.25C3 20.6625 3.3375 21 3.75 21H5.25C5.6625 21 6 20.6625 6 20.25V17.25C6 16.8375 5.6625 16.5 5.25 16.5H3.75ZM21.75 16.5C21.3375 16.5 21 16.8375 21 17.25V20.25C21 20.6625 21.3375 21 21.75 21H23.25C23.6625 21 24 20.6625 24 20.25V17.25C24 16.8375 23.6625 16.5 23.25 16.5H21.75Z" fill="white"/>
</g>
<defs>
<clipPath id="clip0_23_9">
<rect width="27" height="24" fill="white"/>
</clipPath>
</defs>
</svg>
