<svg width="24" height="24" viewBox="0 0 24 24" fill="none" xmlns="http://www.w3.org/2000/svg">
<g clip-path="url(#clip0_3_105)">
<path d="M18.375 0H5.625C2.5184 0 0 2.5184 0 5.625V18.375C0 21.4816 2.5184 24 5.625 24H18.375C21.4816 24 24 21.4816 24 18.375V5.625C24 2.5184 21.4816 0 18.375 0Z" fill="#023430"/>
<path d="M16.0475 10.0867C15.0596 5.72906 13.0009 4.569 12.4757 3.74897C12.259 3.38778 12.0672 3.01225 11.9015 2.625C11.8737 3.01219 11.8227 3.25594 11.4937 3.54956C10.833 4.13859 8.02706 6.42516 7.79091 11.3764C7.57088 15.9928 11.1847 18.8393 11.662 19.1336C12.0292 19.3143 12.4763 19.1375 12.6944 18.9716C14.4364 17.7761 16.8165 14.5888 16.0493 10.0867" fill="#10AA50"/>
<path d="M12.0511 16.6754C11.9602 17.818 11.895 18.482 11.664 19.1349C11.664 19.1349 11.8156 20.2227 11.9221 21.375H12.2989C12.3889 20.5636 12.5261 19.7581 12.7099 18.9626C12.2221 18.7226 12.0698 17.6781 12.0511 16.6754Z" fill="#B8C4C2"/>
<path d="M12.7092 18.9633C12.2163 18.7356 12.0737 17.669 12.0518 16.6754C12.1736 15.0364 12.2091 13.3921 12.1583 11.7493C12.1324 10.8874 12.1704 3.76574 11.9459 2.72305C12.0994 3.07625 12.2764 3.41876 12.4757 3.7483C13.0009 4.56899 15.0603 5.72905 16.0475 10.0866C16.8165 14.5811 14.4493 17.76 12.7092 18.9633Z" fill="#12924F"/>
</g>
<defs>
<clipPath id="clip0_3_105">
<rect width="24" height="24" fill="white"/>
</clipPath>
</defs>
</svg>
