<svg width="163" height="44" viewBox="0 0 163 44" fill="none" xmlns="http://www.w3.org/2000/svg">
<path d="M99.7019 19.7679C99.0935 19.8816 98.4965 19.9299 97.9108 19.9129C97.3309 19.9015 96.8106 19.7963 96.3501 19.5973C95.8895 19.3926 95.5399 19.0714 95.3011 18.6336C95.0907 18.2356 94.9798 17.829 94.9685 17.414C94.9571 16.9989 94.9514 16.5299 94.9514 16.0068V7.99837H96.9983V15.8874C96.9983 16.2569 97.0011 16.581 97.0068 16.8596C97.0182 17.1382 97.0779 17.3657 97.1859 17.5419C97.3906 17.8831 97.7175 18.0735 98.1667 18.1133C98.6159 18.1531 99.1276 18.1304 99.7019 18.0451V19.7679ZM93.2798 12.1689V10.557H99.7019V12.1689H93.2798Z" fill="#F9F6F4"/>
<path d="M101.853 9.15827V7.27344H103.908V9.15827H101.853ZM101.853 19.7679V10.557H103.908V19.7679H101.853Z" fill="#F9F6F4"/>
<path d="M110.463 20.0238C109.514 20.0238 108.703 19.8134 108.032 19.3926C107.362 18.9662 106.847 18.3863 106.489 17.6528C106.136 16.9193 105.957 16.0892 105.951 15.1624C105.957 14.2186 106.142 13.3828 106.506 12.655C106.875 11.9215 107.399 11.3473 108.075 10.9322C108.752 10.5115 109.556 10.3011 110.489 10.3011C111.535 10.3011 112.419 10.5655 113.141 11.0943C113.869 11.6174 114.344 12.3338 114.565 13.2435L112.519 13.7978C112.359 13.3032 112.095 12.9194 111.725 12.6465C111.356 12.3679 110.935 12.2286 110.463 12.2286C109.929 12.2286 109.488 12.3565 109.141 12.6124C108.794 12.8625 108.538 13.2094 108.374 13.6529C108.209 14.0963 108.126 14.5995 108.126 15.1624C108.126 16.038 108.322 16.7459 108.715 17.2861C109.107 17.8262 109.69 18.0963 110.463 18.0963C111.009 18.0963 111.438 17.9712 111.751 17.721C112.069 17.4708 112.308 17.1098 112.467 16.6379L114.565 17.107C114.281 18.0451 113.784 18.7672 113.073 19.2732C112.362 19.7736 111.492 20.0238 110.463 20.0238Z" fill="#F9F6F4"/>
<path d="M116.263 19.7679L116.28 7.42478H118.372V14.9678L121.758 10.5106H124.338L120.746 15.1392L124.646 19.7679H121.912L118.372 15.3107V19.7679H116.263Z" fill="#F9F6F4"/>
<path d="M129.546 20.025C128.609 20.025 127.786 19.8222 127.078 19.4165C126.369 19.0107 125.815 18.4479 125.415 17.7279C125.02 17.0078 124.823 16.1792 124.823 15.2421C124.823 14.2306 125.018 13.3535 125.406 12.6106C125.795 11.862 126.335 11.282 127.026 10.8706C127.718 10.4591 128.518 10.2534 129.426 10.2534C130.386 10.2534 131.201 10.4791 131.869 10.9306C132.543 11.3763 133.043 12.0077 133.369 12.8249C133.695 13.6421 133.818 14.6049 133.738 15.7135H131.689V14.9592C131.683 13.9535 131.506 13.2192 131.158 12.7563C130.809 12.2935 130.261 12.062 129.512 12.062C128.666 12.062 128.038 12.3249 127.626 12.8506C127.215 13.3706 127.009 14.1335 127.009 15.1392C127.009 16.0764 127.215 16.8021 127.626 17.3164C128.038 17.8307 128.638 18.0879 129.426 18.0879C129.935 18.0879 130.372 17.9764 130.738 17.7536C131.109 17.525 131.395 17.1964 131.595 16.7678L133.635 17.385C133.281 18.2193 132.732 18.8679 131.989 19.3307C131.252 19.7936 130.438 20.025 129.546 20.025ZM126.358 15.7135V14.1535H132.726V15.7135H126.358Z" fill="#F9F6F4"/>
<path d="M141.076 19.7679C140.465 19.8822 139.865 19.9308 139.276 19.9136C138.693 19.9022 138.17 19.7965 137.707 19.5965C137.245 19.3907 136.893 19.0679 136.653 18.6279C136.442 18.2279 136.33 17.8193 136.319 17.4021C136.307 16.985 136.302 16.5135 136.302 15.9878V7.93908H138.359V15.8678C138.359 16.2393 138.362 16.565 138.367 16.845C138.379 17.125 138.439 17.3536 138.547 17.5307C138.753 17.8736 139.082 18.065 139.533 18.105C139.985 18.145 140.499 18.1221 141.076 18.0364V19.7679ZM134.622 12.1306V10.5106H141.076V12.1306H134.622Z" fill="#F9F6F4"/>
<path d="M151.925 19.7679C151.313 19.8822 150.713 19.9308 150.125 19.9136C149.542 19.9022 149.019 19.7965 148.556 19.5965C148.093 19.3907 147.742 19.0679 147.502 18.6279C147.29 18.2279 147.179 17.8193 147.167 17.4021C147.156 16.985 147.15 16.5135 147.15 15.9878V7.93908H149.207V15.8678C149.207 16.2393 149.21 16.565 149.216 16.845C149.227 17.125 149.287 17.3536 149.396 17.5307C149.602 17.8736 149.93 18.065 150.382 18.105C150.833 18.145 151.347 18.1221 151.925 18.0364V19.7679ZM145.47 12.1306V10.5106H151.925V12.1306H145.47Z" fill="#F9F6F4"/>
<path d="M157.535 20.025C156.609 20.025 155.801 19.8165 155.109 19.3993C154.418 18.9822 153.881 18.4079 153.498 17.6764C153.121 16.9393 152.932 16.0935 152.932 15.1392C152.932 14.1678 153.126 13.3163 153.515 12.5849C153.904 11.8534 154.444 11.282 155.135 10.8706C155.826 10.4591 156.626 10.2534 157.535 10.2534C158.467 10.2534 159.278 10.462 159.969 10.8791C160.661 11.2963 161.198 11.8734 161.581 12.6106C161.964 13.342 162.155 14.1849 162.155 15.1392C162.155 16.0992 161.961 16.9478 161.572 17.685C161.189 18.4164 160.652 18.9907 159.961 19.4079C159.269 19.8193 158.461 20.025 157.535 20.025ZM157.535 18.0879C158.358 18.0879 158.969 17.8136 159.369 17.265C159.769 16.7164 159.969 16.0078 159.969 15.1392C159.969 14.2421 159.767 13.5278 159.361 12.9963C158.955 12.4592 158.347 12.1906 157.535 12.1906C156.981 12.1906 156.524 12.3163 156.164 12.5677C155.809 12.8135 155.546 13.1592 155.375 13.6049C155.204 14.0449 155.118 14.5564 155.118 15.1392C155.118 16.0364 155.321 16.7535 155.726 17.2907C156.138 17.8221 156.741 18.0879 157.535 18.0879Z" fill="#F9F6F4"/>
<path d="M97.8597 37.1885C96.7225 37.1885 95.7986 36.9327 95.0879 36.421C94.3771 35.9092 93.945 35.19 93.7915 34.2632L95.8895 33.9391C95.9976 34.394 96.2364 34.7522 96.606 35.0137C96.9755 35.2753 97.4418 35.406 98.0047 35.406C98.4993 35.406 98.8803 35.3094 99.1475 35.1161C99.4204 34.9171 99.5569 34.647 99.5569 34.3059C99.5569 34.0955 99.5057 33.9277 99.4033 33.8027C99.3067 33.6719 99.0906 33.5468 98.7552 33.4274C98.4197 33.308 97.9052 33.1573 97.2115 32.9754C96.4382 32.7707 95.8242 32.5518 95.3693 32.3187C94.9144 32.0799 94.5875 31.7984 94.3885 31.4743C94.1895 31.1503 94.09 30.7579 94.09 30.2974C94.09 29.7231 94.2407 29.2228 94.542 28.7964C94.8434 28.3699 95.2641 28.043 95.8043 27.8156C96.3444 27.5824 96.9812 27.4659 97.7147 27.4659C98.4311 27.4659 99.065 27.5768 99.6166 27.7985C100.174 28.0202 100.623 28.3358 100.964 28.7452C101.305 29.1546 101.516 29.635 101.595 30.1865L99.4972 30.5618C99.446 30.1695 99.2669 29.8596 98.9599 29.6322C98.6585 29.4047 98.2548 29.2768 97.7488 29.2484C97.2655 29.2199 96.876 29.2939 96.5804 29.4701C96.2847 29.6407 96.1369 29.8823 96.1369 30.1951C96.1369 30.3713 96.1966 30.522 96.316 30.6471C96.4354 30.7722 96.6742 30.8972 97.0324 31.0223C97.3963 31.1474 97.9364 31.3009 98.6528 31.4829C99.3863 31.6705 99.9719 31.8866 100.41 32.1311C100.853 32.3699 101.172 32.657 101.365 32.9924C101.564 33.3279 101.663 33.7344 101.663 34.212C101.663 35.1388 101.325 35.8666 100.649 36.3954C99.9776 36.9241 99.048 37.1885 97.8597 37.1885Z" fill="#F9F6F4"/>
<path d="M109.902 36.9327V32.4978C109.902 32.2078 109.882 31.8866 109.843 31.534C109.803 31.1815 109.709 30.8432 109.561 30.5191C109.419 30.1894 109.203 29.9193 108.913 29.7089C108.629 29.4985 108.242 29.3934 107.753 29.3934C107.492 29.3934 107.233 29.436 106.977 29.5213C106.721 29.6066 106.488 29.7544 106.278 29.9648C106.073 30.1695 105.908 30.4538 105.783 30.8176C105.658 31.1758 105.595 31.6364 105.595 32.1993L104.376 31.679C104.376 30.8944 104.526 30.1837 104.828 29.5469C105.135 28.9101 105.584 28.404 106.175 28.0288C106.767 27.6478 107.494 27.4574 108.359 27.4574C109.041 27.4574 109.604 27.5711 110.047 27.7985C110.491 28.0259 110.843 28.3159 111.105 28.6684C111.366 29.0209 111.56 29.3962 111.685 29.7942C111.81 30.1922 111.89 30.5703 111.924 30.9285C111.963 31.281 111.983 31.5682 111.983 31.7899V36.9327H109.902ZM103.514 36.9327V24.6514H105.348V31.1161H105.595V36.9327H103.514Z" fill="#F9F6F4"/>
<path d="M118.304 37.1898C117.378 37.1898 116.569 36.9812 115.878 36.5641C115.186 36.1469 114.649 35.5726 114.266 34.8412C113.889 34.104 113.701 33.2583 113.701 32.304C113.701 31.3326 113.895 30.4811 114.284 29.7497C114.672 29.0182 115.212 28.4468 115.904 28.0353C116.595 27.6239 117.395 27.4182 118.304 27.4182C119.235 27.4182 120.046 27.6268 120.738 28.0439C121.429 28.4611 121.967 29.0382 122.349 29.7754C122.732 30.5068 122.924 31.3497 122.924 32.304C122.924 33.264 122.729 34.1126 122.341 34.8498C121.958 35.5812 121.421 36.1555 120.729 36.5727C120.038 36.9841 119.229 37.1898 118.304 37.1898ZM118.304 35.2526C119.126 35.2526 119.738 34.9783 120.138 34.4298C120.538 33.8812 120.738 33.1726 120.738 32.304C120.738 31.4068 120.535 30.6925 120.129 30.1611C119.724 29.624 119.115 29.3554 118.304 29.3554C117.749 29.3554 117.292 29.4811 116.932 29.7325C116.578 29.9782 116.315 30.324 116.144 30.7697C115.972 31.2097 115.886 31.7211 115.886 32.304C115.886 33.2012 116.089 33.9183 116.495 34.4555C116.906 34.9869 117.509 35.2526 118.304 35.2526Z" fill="#F9F6F4"/>
<path d="M126.449 36.9327L123.62 27.6582L125.643 27.6753L127.452 33.6155L129.286 27.6753H131.026L132.852 33.6155L134.669 27.6753H136.692L133.863 36.9327H132.252L130.152 30.564L128.06 36.9327H126.449Z" fill="#F9F6F4"/>
<path d="M72.5 0L72.5 43.7055" stroke="#F9F6F4" stroke-width="2"/>
<g clip-path="url(#clip0_2083_318)">
<path fill-rule="evenodd" clip-rule="evenodd" d="M58 22.0324C58 22.0324 45.016 36.7908 28.9997 36.7908C12.9833 
36.7908 0 22.0324 0 22.0324C0 22.0324 12.984 7.27344 28.9997 7.27344C45.0154 7.27344 58 22.0324 58 22.0324ZM28.9806 
32.9875C35.0312 32.9875 39.9362 28.0825 39.9362 22.0318C39.9362 15.9812 35.0312 11.0762 28.9806 11.0762C22.9299 11.0762 
18.0249 15.9812 18.0249 22.0318C18.0249 28.0825 22.9299 32.9875 28.9806 32.9875ZM35.5248 22.0322C35.5248 25.6463 32.595 
28.5761 28.9809 28.5761C25.3668 28.5761 22.437 25.6463 22.437 22.0322C22.437 18.4181 25.3668 15.4883 28.9809 15.4883C32.595 
15.4883 35.5248 18.4181 35.5248 22.0322Z" fill="#F9F6F4"/>
</g>
<defs>
<clipPath id="clip0_2083_318">
<rect width="58" height="29.5174" fill="white" transform="translate(0 7.27344)"/>
</clipPath>
</defs>
</svg>
