<svg width="16" height="16" viewBox="0 0 16 16" fill="none" xmlns="http://www.w3.org/2000/svg">
<path d="M4.281 7.62801C5.47512 8.04726 6.73466 8.24928 8 8.22451C9.26537 8.24912 10.5249 8.04693 11.719 7.62751C12.651 7.26401 12.9815 6.86001 12.9815 6.62751V4.85001C12.6556 5.06806 12.306 5.24854 11.9395 5.38801C10.6762 5.84028 9.34164 6.06082 8 6.03901C6.6585 6.06005 5.32414 5.83988 4.0605 5.38901C3.69377 5.24962 3.34417 5.06878 3.0185 4.85001V6.62501C3.0185 6.86201 3.35 7.26401 4.281 7.62801ZM4.281 10.9805C4.7028 11.1414 5.13776 11.2654 5.581 11.351C6.37807 11.5049 7.18822 11.5807 8 11.5775C8.81176 11.5809 9.62192 11.5052 10.419 11.3515C10.8622 11.2659 11.2972 11.1419 11.719 10.981C12.651 10.6175 12.9815 10.2135 12.9815 9.98101V8.28601C12.7122 8.44809 12.4291 8.58613 12.1355 8.69851C10.8084 9.16828 9.4076 9.39573 8 9.37001C6.59225 9.39493 5.19148 9.16663 3.8645 8.69601C3.57123 8.58293 3.2882 8.44493 3.0185 8.28351V9.98001C3.0185 10.213 3.35 10.6155 4.281 10.9805ZM8 15C10.75 15 12.9815 14.128 12.9815 13.053V11.6345C12.7365 11.7822 12.4798 11.9096 12.214 12.0155L12.1355 12.047C10.8086 12.5181 9.40784 12.7469 8 12.7225C6.59208 12.748 5.19112 12.5192 3.8645 12.047L3.786 12.0155C3.52021 11.9096 3.26353 11.7822 3.0185 11.6345V13.053C3.0185 14.128 5.25 15 8 15Z" fill="#FFDA44"/>
<path d="M8 4.894C10.7512 4.894 12.9815 4.0223 12.9815 2.947C12.9815 1.8717 10.7512 1 8 1C5.24879 1 3.0185 1.8717 3.0185 2.947C3.0185 4.0223 5.24879 4.894 8 4.894Z" fill="#FFDA44"/>
</svg>
